<svg width="38" height="38" viewBox="0 0 38 38" fill="none" xmlns="http://www.w3.org/2000/svg">
<g id="Interface essential/Magnifier ">
<path id="Icon" fill-rule="evenodd" clip-rule="evenodd" d="M6.43112 12.1433C8.68928 6.72097 13.9802 3.18276 19.854 3.16707C26.1844 3.13374 31.8133 7.18863 33.7867 13.2038C35.76 19.2189 33.627 25.8202 28.507 29.5433C23.387 33.2665 16.4497 33.2609 11.3356 29.5296L6.77562 34.0896C6.31199 34.5526 5.56092 34.5526 5.09729 34.0896C4.63424 33.6259 4.63424 32.8749 5.09729 32.4112L9.51479 27.9937C5.38847 23.8135 4.17296 17.5656 6.43112 12.1433ZM8.54827 22.4346C10.4443 27.0035 14.9072 29.9793 19.854 29.9729V29.9096C26.5677 29.901 32.018 24.4791 32.0615 17.7654C32.0679 12.8187 29.0921 8.35573 24.5231 6.45973C19.9541 4.56373 14.6928 5.6085 11.1949 9.10638C7.69704 12.6043 6.65227 17.8656 8.54827 22.4346Z" fill="#7C7C7C"/>
</g>
</svg>
